<svg width="168" height="58" viewBox="0 0 168 58" fill="none" xmlns="http://www.w3.org/2000/svg">
<rect x="0.5" y="0.5" width="167" height="57" rx="1.5" stroke="#F3F3F3"/>
<path d="M25 23.6134C26.5067 23.6134 27.9987 23.9102 29.3907 24.4868C30.7827 25.0634 32.0475 25.9085 33.1129 26.9739C34.1783 28.0393 35.0235 29.3041 35.6001 30.6962C36.1767 32.0882 36.4734 33.5801 36.4734 35.0868L32.4764 35.0868C32.4764 34.105 32.283 33.1328 31.9073 32.2257C31.5316 31.3187 30.9809 30.4945 30.2866 29.8002C29.5924 29.106 28.7682 28.5553 27.8611 28.1795C26.954 27.8038 25.9818 27.6104 25 27.6104L25 23.6134Z" fill="#016BFF"/>
<path d="M43.9998 23.6134C42.493 23.6134 41.0011 23.9102 39.6091 24.4868C38.217 25.0634 36.9522 25.9085 35.8868 26.9739C34.8214 28.0393 33.9763 29.3041 33.3997 30.6962C32.8231 32.0882 32.5263 33.5801 32.5263 35.0868L36.5233 35.0868C36.5233 34.105 36.7167 33.1328 37.0924 32.2257C37.4682 31.3187 38.0189 30.4945 38.7131 29.8002C39.4074 29.106 40.2316 28.5553 41.1387 28.1795C42.0457 27.8038 43.0179 27.6104 43.9998 27.6104L43.9998 23.6134Z" fill="#016BFF"/>
<circle cx="34.4976" cy="21.0435" r="4.13043" fill="#016BFF"/>
<path d="M64.432 21.608V33H62.368L57.056 24.616V33H55.168V21.608H57.264L62.512 30.008V21.608H64.432ZM73.5789 30.424C73.3762 31.32 72.9335 32.0187 72.2509 32.52C71.5789 33.0213 70.7735 33.272 69.8349 33.272C68.5869 33.272 67.5949 32.872 66.8589 32.072C66.1335 31.2613 65.7709 30.2267 65.7709 28.968C65.7709 27.6773 66.1442 26.6107 66.8909 25.768C67.6482 24.9253 68.6082 24.504 69.7709 24.504C70.9762 24.504 71.9309 24.92 72.6349 25.752C73.3389 26.5733 73.6909 27.6987 73.6909 29.128V29.32H67.5949C67.6162 30.152 67.8242 30.7973 68.2189 31.256C68.6135 31.704 69.1629 31.928 69.8669 31.928C70.3682 31.928 70.7735 31.8107 71.0829 31.576C71.4029 31.3307 71.6535 30.9467 71.8349 30.424H73.5789ZM71.8669 28.104C71.8135 27.4107 71.5949 26.8667 71.2109 26.472C70.8375 26.0667 70.3522 25.864 69.7549 25.864C69.1575 25.864 68.6722 26.056 68.2989 26.44C67.9362 26.824 67.7122 27.3787 67.6269 28.104H71.8669ZM73.9895 24.744H75.9255L77.5575 30.936L79.1095 24.744H80.9495L82.4695 30.936L84.1815 24.744H86.0375L83.4295 33H81.5575L80.0055 26.872L78.4695 33H76.5495L73.9895 24.744ZM86.8106 27.288C87.0026 25.4213 88.208 24.488 90.4266 24.488C91.4613 24.488 92.2826 24.6907 92.8906 25.096C93.5093 25.5013 93.8186 26.1307 93.8186 26.984V31.176C93.8186 31.4107 93.8453 31.5707 93.8986 31.656C93.9626 31.7413 94.08 31.784 94.2506 31.784C94.3786 31.784 94.5173 31.7733 94.6666 31.752V33.032C94.1973 33.1493 93.8026 33.208 93.4826 33.208C92.704 33.208 92.256 32.8773 92.1386 32.216C91.4453 32.8773 90.48 33.208 89.2426 33.208C88.3893 33.208 87.712 32.9893 87.2106 32.552C86.7093 32.104 86.4586 31.5013 86.4586 30.744C86.4586 30.5093 86.4853 30.2907 86.5386 30.088C86.592 29.8853 86.6506 29.7093 86.7146 29.56C86.7893 29.4107 86.9013 29.272 87.0506 29.144C87.2106 29.016 87.3386 28.9093 87.4346 28.824C87.5413 28.7387 87.7066 28.6587 87.9306 28.584C88.1653 28.5093 88.336 28.456 88.4426 28.424C88.56 28.3813 88.7573 28.3387 89.0346 28.296C89.312 28.2533 89.4933 28.2267 89.5786 28.216C89.6746 28.1947 89.8666 28.168 90.1546 28.136C90.8053 28.0507 91.248 27.9813 91.4826 27.928C91.7173 27.864 91.8773 27.7733 91.9626 27.656C92.0373 27.5707 92.0746 27.3733 92.0746 27.064C92.0746 26.232 91.5093 25.816 90.3786 25.816C89.7813 25.816 89.344 25.928 89.0666 26.152C88.7893 26.376 88.6133 26.7547 88.5386 27.288H86.8106ZM92.0586 28.856C91.92 28.9307 91.76 29 91.5786 29.064C91.3973 29.1173 91.248 29.1547 91.1306 29.176C91.024 29.1867 90.848 29.208 90.6026 29.24C90.368 29.272 90.2133 29.2933 90.1386 29.304C89.9146 29.336 89.7386 29.368 89.6106 29.4C89.4826 29.4213 89.3226 29.464 89.1306 29.528C88.9493 29.592 88.8053 29.672 88.6986 29.768C88.6026 29.8533 88.5173 29.976 88.4426 30.136C88.368 30.2853 88.3306 30.4667 88.3306 30.68C88.3306 31.0747 88.4586 31.3787 88.7146 31.592C88.9813 31.8053 89.3493 31.912 89.8186 31.912C90.6293 31.912 91.2533 31.6933 91.6906 31.256C91.936 31.0107 92.0586 30.536 92.0586 29.832V28.856ZM102.741 24.744L99.6853 32.84C99.6533 32.9147 99.5946 33.0693 99.5093 33.304C99.4239 33.5493 99.3653 33.7147 99.3333 33.8C99.3013 33.8853 99.2373 34.0347 99.1413 34.248C99.0559 34.4613 98.9866 34.6107 98.9333 34.696C98.8799 34.7813 98.7999 34.9093 98.6933 35.08C98.5866 35.2507 98.4853 35.3733 98.3893 35.448C98.3039 35.5227 98.1919 35.6133 98.0533 35.72C97.9253 35.8373 97.7919 35.9173 97.6533 35.96C97.5146 36.0133 97.3546 36.056 97.1733 36.088C97.0026 36.1307 96.8159 36.152 96.6133 36.152C96.2719 36.152 95.8506 36.12 95.3493 36.056V34.52C95.7333 34.5947 96.0533 34.632 96.3093 34.632C96.4373 34.632 96.5546 34.6107 96.6613 34.568C96.7679 34.536 96.8639 34.472 96.9493 34.376C97.0346 34.2907 97.1093 34.2053 97.1733 34.12C97.2373 34.0453 97.2959 33.9333 97.3493 33.784C97.4133 33.6453 97.4613 33.5333 97.4933 33.448C97.5253 33.3733 97.5679 33.2507 97.6213 33.08C97.6746 32.9093 97.7066 32.8027 97.7173 32.76L94.5493 24.744H96.5493L98.7573 30.824L100.837 24.744H102.741ZM117.811 26.904V33H116.531L116.227 31.64C115.321 32.728 114.137 33.272 112.675 33.272C111.075 33.272 109.774 32.728 108.771 31.64C107.779 30.552 107.283 29.1333 107.283 27.384C107.283 25.6667 107.785 24.2373 108.787 23.096C109.79 21.944 111.145 21.368 112.851 21.368C114.089 21.368 115.166 21.7147 116.083 22.408C117.011 23.1013 117.539 24.0453 117.667 25.24H115.731C115.614 24.5573 115.294 24.024 114.771 23.64C114.259 23.2453 113.614 23.048 112.835 23.048C111.737 23.048 110.873 23.432 110.243 24.2C109.614 24.968 109.299 26.0187 109.299 27.352C109.299 28.696 109.614 29.752 110.243 30.52C110.883 31.2773 111.769 31.656 112.899 31.656C113.891 31.656 114.654 31.3467 115.187 30.728C115.731 30.1093 116.003 29.3467 116.003 28.44H112.931V26.904H117.811ZM124.064 24.584V26.328C123.744 26.296 123.531 26.28 123.424 26.28C121.835 26.28 121.04 27.3093 121.04 29.368V33H119.232V24.744H120.944V26.392C121.531 25.1653 122.453 24.552 123.712 24.552L124.064 24.584ZM131.945 24.744V33H130.233V31.768C129.54 32.7387 128.633 33.224 127.513 33.224C126.606 33.224 125.908 32.968 125.417 32.456C124.937 31.9333 124.697 31.1867 124.697 30.216V24.744H126.521V29.464C126.521 29.752 126.526 29.9867 126.537 30.168C126.548 30.3387 126.58 30.536 126.633 30.76C126.697 30.9733 126.782 31.1387 126.889 31.256C127.006 31.3733 127.166 31.4747 127.369 31.56C127.582 31.6453 127.838 31.688 128.137 31.688C128.82 31.688 129.321 31.448 129.641 30.968C129.961 30.4773 130.121 29.8587 130.121 29.112V24.744H131.945ZM135.308 24.744V25.848C135.863 24.952 136.759 24.504 137.996 24.504C139.138 24.504 140.05 24.904 140.732 25.704C141.415 26.504 141.756 27.5707 141.756 28.904C141.756 30.2053 141.42 31.2507 140.748 32.04C140.087 32.8187 139.202 33.208 138.092 33.208C136.919 33.208 136.023 32.776 135.404 31.912V36.056H133.596V24.744H135.308ZM137.628 25.976C136.914 25.976 136.354 26.232 135.948 26.744C135.543 27.256 135.34 27.9653 135.34 28.872C135.34 29.768 135.543 30.472 135.948 30.984C136.364 31.496 136.935 31.752 137.66 31.752C138.354 31.752 138.903 31.496 139.308 30.984C139.714 30.472 139.916 29.7787 139.916 28.904C139.916 28.008 139.708 27.2987 139.292 26.776C138.887 26.2427 138.332 25.976 137.628 25.976Z" fill="#016BFF"/>
</svg>
