<svg width="118" height="23" viewBox="0 0 118 23" fill="none" xmlns="http://www.w3.org/2000/svg">
<path d="M-5.0152e-07 7.61341C1.50671 7.61341 2.99867 7.91018 4.39069 8.48677C5.78271 9.06336 7.04753 9.90849 8.11294 10.9739C9.17835 12.0393 10.0235 13.3041 10.6001 14.6961C11.1767 16.0882 11.4734 17.5801 11.4734 19.0868L7.47642 19.0868C7.47642 18.105 7.28303 17.1328 6.90731 16.2257C6.53158 15.3187 5.98087 14.4945 5.28662 13.8002C4.59237 13.106 3.76818 12.5553 2.8611 12.1795C1.95402 11.8038 0.981817 11.6104 -3.26805e-07 11.6104L-5.0152e-07 7.61341Z" fill="#016BFF"/>
<path d="M18.9998 7.61341C17.493 7.61341 16.0011 7.91018 14.6091 8.48677C13.217 9.06336 11.9522 9.90849 10.8868 10.9739C9.82141 12.0393 8.97628 13.3041 8.39969 14.6961C7.8231 16.0882 7.52633 17.5801 7.52633 19.0868L11.5233 19.0868C11.5233 18.105 11.7167 17.1328 12.0924 16.2257C12.4682 15.3187 13.0189 14.4945 13.7131 13.8002C14.4074 13.106 15.2316 12.5553 16.1387 12.1795C17.0457 11.8038 18.0179 11.6104 18.9998 11.6104L18.9998 7.61341Z" fill="#016BFF"/>
<circle cx="9.49762" cy="5.04352" r="4.13043" fill="#016BFF"/>
<path d="M39.432 5.608V17H37.368L32.056 8.616V17H30.168V5.608H32.264L37.512 14.008V5.608H39.432ZM48.5789 14.424C48.3762 15.32 47.9335 16.0187 47.2509 16.52C46.5789 17.0213 45.7735 17.272 44.8349 17.272C43.5869 17.272 42.5949 16.872 41.8589 16.072C41.1335 15.2613 40.7709 14.2267 40.7709 12.968C40.7709 11.6773 41.1442 10.6107 41.8909 9.768C42.6482 8.92533 43.6082 8.504 44.7709 8.504C45.9762 8.504 46.9309 8.92 47.6349 9.752C48.3389 10.5733 48.6909 11.6987 48.6909 13.128V13.32H42.5949C42.6162 14.152 42.8242 14.7973 43.2189 15.256C43.6135 15.704 44.1629 15.928 44.8669 15.928C45.3682 15.928 45.7735 15.8107 46.0829 15.576C46.4029 15.3307 46.6535 14.9467 46.8349 14.424H48.5789ZM46.8669 12.104C46.8135 11.4107 46.5949 10.8667 46.2109 10.472C45.8375 10.0667 45.3522 9.864 44.7549 9.864C44.1575 9.864 43.6722 10.056 43.2989 10.44C42.9362 10.824 42.7122 11.3787 42.6269 12.104H46.8669ZM48.9895 8.744H50.9255L52.5575 14.936L54.1095 8.744H55.9495L57.4695 14.936L59.1815 8.744H61.0375L58.4295 17H56.5575L55.0055 10.872L53.4695 17H51.5495L48.9895 8.744ZM61.8106 11.288C62.0026 9.42133 63.208 8.488 65.4266 8.488C66.4613 8.488 67.2826 8.69067 67.8906 9.096C68.5093 9.50133 68.8186 10.1307 68.8186 10.984V15.176C68.8186 15.4107 68.8453 15.5707 68.8986 15.656C68.9626 15.7413 69.08 15.784 69.2506 15.784C69.3786 15.784 69.5173 15.7733 69.6666 15.752V17.032C69.1973 17.1493 68.8026 17.208 68.4826 17.208C67.704 17.208 67.256 16.8773 67.1386 16.216C66.4453 16.8773 65.48 17.208 64.2426 17.208C63.3893 17.208 62.712 16.9893 62.2106 16.552C61.7093 16.104 61.4586 15.5013 61.4586 14.744C61.4586 14.5093 61.4853 14.2907 61.5386 14.088C61.592 13.8853 61.6506 13.7093 61.7146 13.56C61.7893 13.4107 61.9013 13.272 62.0506 13.144C62.2106 13.016 62.3386 12.9093 62.4346 12.824C62.5413 12.7387 62.7066 12.6587 62.9306 12.584C63.1653 12.5093 63.336 12.456 63.4426 12.424C63.56 12.3813 63.7573 12.3387 64.0346 12.296C64.312 12.2533 64.4933 12.2267 64.5786 12.216C64.6746 12.1947 64.8666 12.168 65.1546 12.136C65.8053 12.0507 66.248 11.9813 66.4826 11.928C66.7173 11.864 66.8773 11.7733 66.9626 11.656C67.0373 11.5707 67.0746 11.3733 67.0746 11.064C67.0746 10.232 66.5093 9.816 65.3786 9.816C64.7813 9.816 64.344 9.928 64.0666 10.152C63.7893 10.376 63.6133 10.7547 63.5386 11.288H61.8106ZM67.0586 12.856C66.92 12.9307 66.76 13 66.5786 13.064C66.3973 13.1173 66.248 13.1547 66.1306 13.176C66.024 13.1867 65.848 13.208 65.6026 13.24C65.368 13.272 65.2133 13.2933 65.1386 13.304C64.9146 13.336 64.7386 13.368 64.6106 13.4C64.4826 13.4213 64.3226 13.464 64.1306 13.528C63.9493 13.592 63.8053 13.672 63.6986 13.768C63.6026 13.8533 63.5173 13.976 63.4426 14.136C63.368 14.2853 63.3306 14.4667 63.3306 14.68C63.3306 15.0747 63.4586 15.3787 63.7146 15.592C63.9813 15.8053 64.3493 15.912 64.8186 15.912C65.6293 15.912 66.2533 15.6933 66.6906 15.256C66.936 15.0107 67.0586 14.536 67.0586 13.832V12.856ZM77.7413 8.744L74.6853 16.84C74.6533 16.9147 74.5946 17.0693 74.5093 17.304C74.4239 17.5493 74.3653 17.7147 74.3333 17.8C74.3013 17.8853 74.2373 18.0347 74.1413 18.248C74.0559 18.4613 73.9866 18.6107 73.9333 18.696C73.8799 18.7813 73.7999 18.9093 73.6933 19.08C73.5866 19.2507 73.4853 19.3733 73.3893 19.448C73.3039 19.5227 73.1919 19.6133 73.0533 19.72C72.9253 19.8373 72.7919 19.9173 72.6533 19.96C72.5146 20.0133 72.3546 20.056 72.1733 20.088C72.0026 20.1307 71.8159 20.152 71.6133 20.152C71.2719 20.152 70.8506 20.12 70.3493 20.056V18.52C70.7333 18.5947 71.0533 18.632 71.3093 18.632C71.4373 18.632 71.5546 18.6107 71.6613 18.568C71.7679 18.536 71.8639 18.472 71.9493 18.376C72.0346 18.2907 72.1093 18.2053 72.1733 18.12C72.2373 18.0453 72.2959 17.9333 72.3493 17.784C72.4133 17.6453 72.4613 17.5333 72.4933 17.448C72.5253 17.3733 72.5679 17.2507 72.6213 17.08C72.6746 16.9093 72.7066 16.8027 72.7173 16.76L69.5493 8.744H71.5493L73.7573 14.824L75.8373 8.744H77.7413ZM92.8113 10.904V17H91.5313L91.2273 15.64C90.3206 16.728 89.1366 17.272 87.6753 17.272C86.0753 17.272 84.7739 16.728 83.7713 15.64C82.7793 14.552 82.2833 13.1333 82.2833 11.384C82.2833 9.66667 82.7846 8.23733 83.7873 7.096C84.7899 5.944 86.1446 5.368 87.8513 5.368C89.0886 5.368 90.1659 5.71467 91.0833 6.408C92.0113 7.10133 92.5393 8.04533 92.6673 9.24H90.7313C90.6139 8.55733 90.2939 8.024 89.7713 7.64C89.2593 7.24533 88.6139 7.048 87.8353 7.048C86.7366 7.048 85.8726 7.432 85.2433 8.2C84.6139 8.968 84.2993 10.0187 84.2993 11.352C84.2993 12.696 84.6139 13.752 85.2433 14.52C85.8833 15.2773 86.7686 15.656 87.8993 15.656C88.8913 15.656 89.6539 15.3467 90.1873 14.728C90.7313 14.1093 91.0033 13.3467 91.0033 12.44H87.9313V10.904H92.8113ZM99.0639 8.584V10.328C98.7439 10.296 98.5305 10.28 98.4239 10.28C96.8345 10.28 96.0399 11.3093 96.0399 13.368V17H94.2319V8.744H95.9439V10.392C96.5305 9.16533 97.4532 8.552 98.7119 8.552L99.0639 8.584ZM106.945 8.744V17H105.233V15.768C104.54 16.7387 103.633 17.224 102.513 17.224C101.606 17.224 100.908 16.968 100.417 16.456C99.9369 15.9333 99.6969 15.1867 99.6969 14.216V8.744H101.521V13.464C101.521 13.752 101.526 13.9867 101.537 14.168C101.548 14.3387 101.58 14.536 101.633 14.76C101.697 14.9733 101.782 15.1387 101.889 15.256C102.006 15.3733 102.166 15.4747 102.369 15.56C102.582 15.6453 102.838 15.688 103.137 15.688C103.82 15.688 104.321 15.448 104.641 14.968C104.961 14.4773 105.121 13.8587 105.121 13.112V8.744H106.945ZM110.308 8.744V9.848C110.863 8.952 111.759 8.504 112.996 8.504C114.138 8.504 115.05 8.904 115.732 9.704C116.415 10.504 116.756 11.5707 116.756 12.904C116.756 14.2053 116.42 15.2507 115.748 16.04C115.087 16.8187 114.202 17.208 113.092 17.208C111.919 17.208 111.023 16.776 110.404 15.912V20.056H108.596V8.744H110.308ZM112.628 9.976C111.914 9.976 111.354 10.232 110.948 10.744C110.543 11.256 110.34 11.9653 110.34 12.872C110.34 13.768 110.543 14.472 110.948 14.984C111.364 15.496 111.935 15.752 112.66 15.752C113.354 15.752 113.903 15.496 114.308 14.984C114.714 14.472 114.916 13.7787 114.916 12.904C114.916 12.008 114.708 11.2987 114.292 10.776C113.887 10.2427 113.332 9.976 112.628 9.976Z" fill="#016BFF"/>
</svg>
